<?xml version="1.0" encoding="UTF-8" standalone="no"?>
<!-- Created with Inkscape (http://www.inkscape.org/) -->

<svg
   xmlns:dc="http://purl.org/dc/elements/1.1/"
   xmlns:cc="http://creativecommons.org/ns#"
   xmlns:rdf="http://www.w3.org/1999/02/22-rdf-syntax-ns#"
   xmlns:svg="http://www.w3.org/2000/svg"
   xmlns="http://www.w3.org/2000/svg"
   xmlns:sodipodi="http://sodipodi.sourceforge.net/DTD/sodipodi-0.dtd"
   xmlns:inkscape="http://www.inkscape.org/namespaces/inkscape"
   width="16px"
   height="16px"
   id="svg3113"
   version="1.1"
   inkscape:version="0.48.1 r9760"
   sodipodi:docname="icon.svg"
   inkscape:export-filename="/home/grampa/www/natalieandjoe/assets/icon.png"
   inkscape:export-xdpi="90"
   inkscape:export-ydpi="90">
  <defs
     id="defs3115" />
  <sodipodi:namedview
     id="base"
     pagecolor="#ffffff"
     bordercolor="#666666"
     borderopacity="1.0"
     inkscape:pageopacity="0.0"
     inkscape:pageshadow="2"
     inkscape:zoom="1"
     inkscape:cx="208.15719"
     inkscape:cy="66.990398"
     inkscape:current-layer="layer2"
     showgrid="true"
     inkscape:grid-bbox="true"
     inkscape:document-units="px"
     showborder="false"
     inkscape:showpageshadow="false"
     inkscape:window-width="1024"
     inkscape:window-height="576"
     inkscape:window-x="0"
     inkscape:window-y="24"
     inkscape:window-maximized="1" />
  <metadata
     id="metadata3118">
    <rdf:RDF>
      <cc:Work
         rdf:about="">
        <dc:format>image/svg+xml</dc:format>
        <dc:type
           rdf:resource="http://purl.org/dc/dcmitype/StillImage" />
        <dc:title></dc:title>
      </cc:Work>
    </rdf:RDF>
  </metadata>
  <g
     inkscape:groupmode="layer"
     id="layer2"
     inkscape:label="Background">
    <rect
       style="fill:#521450;fill-opacity:1;stroke:none"
       id="rect3132"
       width="16"
       height="16"
       x="0"
       y="0"
       rx="4"
       ry="4" />
  </g>
  <g
     id="layer1"
     inkscape:label="Layer 1"
     inkscape:groupmode="layer">
    <g
       style="display:inline"
       id="g4398"
       transform="matrix(0.1,0,0,0.1,-19,-21.2)">
      <path
         id="path4396"
         d="m 290,232 c -16.35564,0 -30.87768,7.85874 -40,20 27.61424,0 50,22.38576 50,50 0,11.25859 -3.72054,21.64243 -10,30 27.61424,0 50,-22.38576 50,-50 0,-27.61424 -22.38576,-50 -50,-50 z"
         style="fill:#5297ff;fill-opacity:1;stroke:none"
         inkscape:connector-curvature="0" />
      <path
         id="path4379"
         d="m 290,332 c -27.61424,0 -50,-22.38576 -50,-50 0,-11.25859 3.72054,-21.64243 10,-30 -27.61424,0 -50,22.38576 -50,50 0,27.61424 22.38576,50 50,50 16.35564,0 30.87768,-7.85874 40,-20 z"
         style="fill:#61ff52;fill-opacity:1;stroke:none"
         inkscape:connector-curvature="0" />
    </g>
  </g>
</svg>
