<?xml version="1.0" encoding="UTF-8" standalone="no"?>
<!-- Created with Inkscape (http://www.inkscape.org/) -->

<svg
   xmlns:dc="http://purl.org/dc/elements/1.1/"
   xmlns:cc="http://creativecommons.org/ns#"
   xmlns:rdf="http://www.w3.org/1999/02/22-rdf-syntax-ns#"
   xmlns:svg="http://www.w3.org/2000/svg"
   xmlns="http://www.w3.org/2000/svg"
   xmlns:sodipodi="http://sodipodi.sourceforge.net/DTD/sodipodi-0.dtd"
   xmlns:inkscape="http://www.inkscape.org/namespaces/inkscape"
   width="40"
   height="40"
   id="svg2"
   version="1.1"
   inkscape:version="0.48.1 r9760"
   sodipodi:docname="search_small.svg"
   inkscape:export-filename="/home/grampa/www/natalieandjoe/assets/search_small.png"
   inkscape:export-xdpi="45"
   inkscape:export-ydpi="45">
  <defs
     id="defs4" />
  <sodipodi:namedview
     id="base"
     pagecolor="#ff76ff"
     bordercolor="#666666"
     borderopacity="1.0"
     inkscape:pageopacity="0"
     inkscape:pageshadow="2"
     inkscape:zoom="3.959798"
     inkscape:cx="30.423508"
     inkscape:cy="39.629395"
     inkscape:document-units="px"
     inkscape:current-layer="layer1"
     showgrid="false"
     inkscape:showpageshadow="false"
     inkscape:window-width="1024"
     inkscape:window-height="576"
     inkscape:window-x="0"
     inkscape:window-y="24"
     inkscape:window-maximized="1" />
  <metadata
     id="metadata7">
    <rdf:RDF>
      <cc:Work
         rdf:about="">
        <dc:format>image/svg+xml</dc:format>
        <dc:type
           rdf:resource="http://purl.org/dc/dcmitype/StillImage" />
        <dc:title></dc:title>
      </cc:Work>
    </rdf:RDF>
  </metadata>
  <g
     inkscape:label="Layer 1"
     inkscape:groupmode="layer"
     id="layer1"
     transform="translate(0,-1012.3622)">
    <path
       style="fill:#ffffff;fill-opacity:1;stroke:none"
       d="m 0,1012.3622 0,40 40,0 0,-40 -40,0 z m 23.333333,7.3333 c 5.522848,0 10,4.4772 10,10 0,5.5228 -4.477152,10 -10,10 -1.543411,0 -3.007312,-0.3547 -4.3125,-0.9791 l -6.666666,6.6667 c -1.305791,1.3058 -3.402543,1.3058 -4.7083337,0 -1.3057904,-1.3058 -1.3057904,-3.4026 0,-4.7084 l 6.6666667,-6.6666 c -0.624417,-1.3053 -0.979167,-2.7692 -0.979167,-4.3126 0,-5.5228 4.477153,-10 10,-10 z m 0,3.3334 c -3.681898,0 -6.666666,2.9847 -6.666666,6.6666 0,3.6819 2.984768,6.6667 6.666666,6.6667 3.681898,0 6.666667,-2.9848 6.666667,-6.6667 0,-3.6819 -2.984769,-6.6666 -6.666667,-6.6666 z"
       id="rect3780"
       inkscape:connector-curvature="0" />
  </g>
</svg>
