<?xml version="1.0" encoding="UTF-8" standalone="no"?>
<!-- Created with Inkscape (http://www.inkscape.org/) -->

<svg
   xmlns:dc="http://purl.org/dc/elements/1.1/"
   xmlns:cc="http://creativecommons.org/ns#"
   xmlns:rdf="http://www.w3.org/1999/02/22-rdf-syntax-ns#"
   xmlns:svg="http://www.w3.org/2000/svg"
   xmlns="http://www.w3.org/2000/svg"
   xmlns:sodipodi="http://sodipodi.sourceforge.net/DTD/sodipodi-0.dtd"
   xmlns:inkscape="http://www.inkscape.org/namespaces/inkscape"
   width="60"
   height="58"
   id="svg2"
   version="1.1"
   inkscape:version="0.48.1 r9760"
   sodipodi:docname="search.svg"
   inkscape:export-filename="/home/grampa/www/natalieandjoe/assets/search_small.png"
   inkscape:export-xdpi="45"
   inkscape:export-ydpi="45">
  <defs
     id="defs4" />
  <sodipodi:namedview
     id="base"
     pagecolor="#ffffff"
     bordercolor="#666666"
     borderopacity="1.0"
     inkscape:pageopacity="0.0"
     inkscape:pageshadow="2"
     inkscape:zoom="3.959798"
     inkscape:cx="-4.1772959"
     inkscape:cy="19.078129"
     inkscape:document-units="px"
     inkscape:current-layer="layer1"
     showgrid="false"
     inkscape:showpageshadow="false"
     inkscape:window-width="1024"
     inkscape:window-height="576"
     inkscape:window-x="0"
     inkscape:window-y="24"
     inkscape:window-maximized="1" />
  <metadata
     id="metadata7">
    <rdf:RDF>
      <cc:Work
         rdf:about="">
        <dc:format>image/svg+xml</dc:format>
        <dc:type
           rdf:resource="http://purl.org/dc/dcmitype/StillImage" />
        <dc:title></dc:title>
      </cc:Work>
    </rdf:RDF>
  </metadata>
  <g
     inkscape:label="Layer 1"
     inkscape:groupmode="layer"
     id="layer1"
     transform="translate(0,-994.3622)">
    <path
       style="fill:#ffffff;fill-opacity:1;stroke:none"
       d="M 0 -2 L 0 58 L 60 58 L 60 -2 L 0 -2 z M 35 9 C 43.284271 9 50 15.7157 50 24 C 50 32.2842 43.284271 39 35 39 C 32.684883 39 30.489031 38.46785 28.53125 37.53125 L 18.53125 47.53125 C 16.572564 49.48995 13.427436 49.48995 11.46875 47.53125 C 9.5100644 45.57255 9.5100644 42.42745 11.46875 40.46875 L 21.46875 30.46875 C 20.532124 28.51095 20 26.3151 20 24 C 20 15.7157 26.715729 9 35 9 z M 35 14 C 29.477153 14 25 18.4771 25 24 C 25 29.5228 29.477153 34 35 34 C 40.522847 34 45 29.5228 45 24 C 45 18.4771 40.522847 14 35 14 z "
       transform="translate(0,994.3622)"
       id="rect3780" />
  </g>
</svg>
